<svg width="134" height="132" viewBox="0 0 134 132" fill="none" xmlns="http://www.w3.org/2000/svg">
<path d="M30.18 85.66C29.87 85.15 29.56 84.63 29.27 84.11C28.19 82.2 26.45 81.02 24.28 80.73C22.11 80.44 20.12 81.11 18.57 82.66L13.98 87.24C10.85 90.37 5.77999 90.37 2.64999 87.24C-0.48001 84.11 -0.48001 79.04 2.64999 75.91L18.34 60.22C20.69 57.87 21.98 55.1101 22.26 51.8C23.35 39.17 28.73 26.84 38.4 17.17C49.3 6.27004 63.58 0.819946 77.87 0.819946C92.16 0.819946 106.44 6.27004 117.34 17.17C128.24 28.07 133.69 42.35 133.69 56.64C133.69 70.93 128.24 85.21 117.34 96.11C107.67 105.78 95.34 111.15 82.71 112.25C79.4 112.54 76.64 113.82 74.29 116.17L61.61 128.85C58.48 131.98 53.41 131.98 50.28 128.85C47.15 125.72 47.15 120.65 50.28 117.52L51.85 115.94C53.4 114.39 54.07 112.4 53.78 110.23C53.49 108.06 52.3 106.32 50.4 105.24C49.88 104.94 49.36 104.64 48.85 104.33C46.14 102.68 42.76 103.09 40.52 105.32L22.34 123.5C19.21 126.63 14.14 126.63 11.01 123.5C7.87999 120.37 7.87999 115.3 11.01 112.17L29.19 93.99C31.43 91.75 31.83 88.37 30.18 85.66ZM38.08 56.64C38.08 66.82 41.97 77 49.74 84.77C57.51 92.54 67.69 96.4301 77.87 96.4301C88.05 96.4301 98.24 92.54 106.01 84.77C113.78 77 117.67 66.82 117.67 56.63C117.67 46.44 113.78 36.26 106.01 28.49C98.24 20.72 88.05 16.84 77.87 16.84C67.69 16.84 57.5 20.72 49.74 28.49C41.97 36.26 38.08 46.45 38.08 56.63V56.64Z" fill="#4BC7F8"/>
<path d="M77.87 45.62C75.42 45.62 73.19 44.62 71.59 43.02C69.99 41.42 69 39.2 69 36.74C69 34.29 70 32.07 71.6 30.46C73.21 28.85 75.43 27.85 77.88 27.85C81.77 27.85 85.48 28.63 88.88 30.03C92.4 31.49 95.57 33.63 98.22 36.27C100.87 38.93 103 42.09 104.46 45.61C105.87 49.01 106.65 52.73 106.65 56.62V56.79C106.43 59.33 105.54 61.63 103.95 63.27C102.45 64.83 100.38 65.76 97.74 65.75C95.66 65.75 93.82 65.0701 92.36 63.9301C90.84 62.7501 89.75 61.08 89.24 59.15C88.98 58.15 88.92 57.21 88.86 56.25C88.82 55.57 88.77 54.88 88.64 54.25C88.41 53.21 88.04 52.22 87.55 51.33C87.06 50.42 86.42 49.58 85.67 48.83C84.65 47.81 83.44 46.9899 82.1 46.4399C80.8 45.9099 79.38 45.61 77.88 45.61L77.87 45.62Z" fill="#122036"/>
</svg>
